# xmcd
#
# Track frame offsets:
#	150
#	20050
#	37367
#	56352
#	75782
#	96630
#	118602
#	141240
#	172362
#	197780
#	215792
#	239355
#	257720
#	275417
#	295960
#
# Disc length: 4231 seconds
#
# Revision: 3
# Processed by: cddbd v1.5.2PL0 Copyright (c) Steve Scherf et al.
# Submitted via: EasyCDDAExtractor 15.3.0.1
#
DISCID=f010850f
DTITLE=Lissette - Latin Stars
DYEAR=1997
DGENRE=Latin
TTITLE0=Canta Lo Sentimental
TTITLE1=Enamorados
TTITLE2=Eva
TTITLE3=Fuego
TTITLE4=Vivo
TTITLE5=Alma Mia
TTITLE6=Apaga La Luz
TTITLE7=Delirio
TTITLE8=Eclipse Total Del Amor
TTITLE9=No Soy Una Señora
TTITLE10=Maquina
TTITLE11=Caricatura
TTITLE12=Fuga
TTITLE13=El Ultimo Cafe
TTITLE14=Un Poco Mas
EXTD=
EXTT0=
EXTT1=
EXTT2=
EXTT3=
EXTT4=
EXTT5=
EXTT6=
EXTT7=
EXTT8=
EXTT9=
EXTT10=
EXTT11=
EXTT12=
EXTT13=
EXTT14=
PLAYORDER=
